<svg id="DESIGN" xmlns="http://www.w3.org/2000/svg" viewBox="0 0 330.16 79.05"><defs><style>.cls-1{fill:#231f20;}</style></defs><path class="cls-1" d="M23.94,26.2H38.51V47.53h2.91V27.69A1.49,1.49,0,0,1,42.9,26.2h1.53V47.53h3s-3.75-12.7,7-12.7c1.73,0,3.22.35,3.22,3.53v9.17h2.24V38c0-3.69-2.91-4.75-5-4.75a10.17,10.17,0,0,0-8.56,4.47l.24-10.37L45.25,26.2H60V24.25H23.94Z"/><path class="cls-1" d="M77.35,41.94a5.19,5.19,0,0,1-.13-1.38c1.46-.33,2.81.48,4.1,1.16,3.19,1.59,9,1.7,10.6-2.17,1.59-5.36-5.92-7.08-9.85-6.11a7.4,7.4,0,0,0-5.89,8.72c.19,2.7,2.57,4.8,5.11,5.34a21.51,21.51,0,0,0,11-1l-1.09-2.78C87.18,45.51,78.83,47.87,77.35,41.94Zm11.46-6.06a2.6,2.6,0,0,1,1.94,1.83,2,2,0,0,1-1,2.27c-2.29.93-5.24.3-7.62-.2-1.45-.51-3.51-.82-4.82.16C78.09,35.67,85.14,34.76,88.81,35.88Z"/><path class="cls-1" d="M64.18,37.81V33.1L62.5,31.71H62V47.53h2.23V39.34C65,33.3,75.53,36,75.53,36V33.67S66.35,30.85,64.18,37.81Z"/><path class="cls-1" d="M95.52,41.94a5.19,5.19,0,0,1-.13-1.38c1.46-.33,2.81.48,4.1,1.16,3.19,1.59,9,1.7,10.6-2.17,1.59-5.36-5.92-7.08-9.85-6.11a7.4,7.4,0,0,0-5.89,8.72c.19,2.7,2.57,4.8,5.11,5.34a21.51,21.51,0,0,0,11-1l-1.09-2.78C105.35,45.51,97,47.87,95.52,41.94ZM107,35.88a2.6,2.6,0,0,1,1.94,1.83,2,2,0,0,1-1,2.27c-2.29.93-5.24.3-7.63-.2-1.44-.51-3.5-.82-4.81.16C96.26,35.67,103.31,34.76,107,35.88Z"/><path class="cls-1" d="M141,42.07a5.53,5.53,0,0,1-.12-1.37c1.46-.34,2.81.47,4.1,1.15,3.18,1.59,9,1.7,10.6-2.16,1.59-5.36-5.92-7.09-9.85-6.11a7.39,7.39,0,0,0-5.89,8.71c.19,2.7,2.57,4.81,5.11,5.34a21.62,21.62,0,0,0,11-.94l-1.09-2.79C150.84,45.65,142.49,48,141,42.07Zm11.47-6a2.61,2.61,0,0,1,1.94,1.82,2,2,0,0,1-1,2.27c-2.29.94-5.24.3-7.63-.2-1.45-.51-3.5-.82-4.82.16C141.75,35.81,148.8,34.9,152.47,36Z"/><path class="cls-1" d="M140.59,23.93H138.1L125.54,36.64V23.93h-3.12V47.65h3.12V40.81c0-2,1.82-2.67,3.1-1.19l8.54,8h3.41l-11.5-11.59Z"/><path class="cls-1" d="M172.14,33.34H169.9v9.59s-.19,4.29-6,3.36-2-11.7-1.54-12.95h-4.48v9.5c0,3.69,3.81,5.38,6.26,5.38a6.9,6.9,0,0,0,5.76-3.06c0,.61,0,1.2,0,1.2-.05,3.74.5,10.52-4.42,11.45-3.15.59-4.74-3-5.67-4.42-.53-.84-2.25.11-2.25.11.33,2.32,2.95,5.24,7.61,5.24a6.51,6.51,0,0,0,5.77-3.64c1.48-2.78,1.23-6,1.23-9Z"/><path class="cls-1" d="M162.35,33.34h0C162.43,33.17,162.41,33.19,162.35,33.34Z"/><path class="cls-1" d="M291.48,33.55h-2.23v9.58s-.19,4.3-6,3.36-2.05-11.7-1.54-12.94h-4.47V43c0,3.69,3.8,5.39,6.26,5.39a6.89,6.89,0,0,0,5.75-3.07l0,1.2c0,3.74.5,10.52-4.41,11.45-3.16.59-4.75-2.95-5.67-4.41-.53-.85-2.25.1-2.25.1.32,2.32,2.94,5.25,7.6,5.25a6.51,6.51,0,0,0,5.77-3.64c1.48-2.79,1.23-6,1.23-9Z"/><path class="cls-1" d="M281.69,33.55h0C281.77,33.38,281.76,33.39,281.69,33.55Z"/><path class="cls-1" d="M208.45,42a5.15,5.15,0,0,1-.14-1.37c1.47-.35,2.82.47,4.12,1.14,3.18,1.59,9,1.71,10.6-2.16,1.59-5.36-5.92-7.09-9.85-6.11a7.4,7.4,0,0,0-5.89,8.72c.19,2.7,2.57,4.8,5.11,5.33a21.41,21.41,0,0,0,11-.94l-1.09-2.78C218.29,45.57,209.94,47.93,208.45,42Zm8.36-6.49c1.8,0,4.55.25,5.05,2.25.54,4.1-6.29,2.56-8.65,2.08-1.45-.51-3.51-.83-4.83.16C209,36.72,213.64,35.4,216.81,35.51Z"/><path class="cls-1" d="M256,39.28a6.3,6.3,0,0,0-4.92-5.51,21.57,21.57,0,0,0-11,.56l1,2.82c4.09-1.6,12.52-3.66,13.8,2.31a5.51,5.51,0,0,1,.08,1.38c-1.47.29-2.79-.57-4.06-1.29-3.13-1.7-8.95-2-10.67,1.79-1.78,5.3,5.67,7.29,9.63,6.45a7.82,7.82,0,0,0,4.74-2.8l-.49,2.54h3.3L256.14,41A7.28,7.28,0,0,0,256,39.28ZM243.2,45.12a2.64,2.64,0,0,1-1.88-1.89,2,2,0,0,1,1.1-2.24c2.32-.85,5.25-.12,7.62.46,1.43.56,3.47.95,4.82,0C253.91,45.7,246.83,46.36,243.2,45.12Z"/><path class="cls-1" d="M227.86,38.27V33.75l-1.6-1.34h-.54V47.58h2.14V39.73c.77-5.78,10.88-3.19,10.88-3.19V34.3S229.94,31.59,227.86,38.27Z"/><path class="cls-1" d="M261.8,35.26a6.37,6.37,0,0,0-1.39,1.5,13.21,13.21,0,0,1,1.14-3.18H259.2V54.13h2.42c1-3.1.07-6.16-.78-9.17a6.57,6.57,0,0,0,1,.94c4.65,4.18,13.72,1.37,13.75-5.32S266.45,31.08,261.8,35.26Zm12.66,5.32c-.08,3.68-4.1,4.82-7.07,4.76-2.51,0-6-.64-7-3.49a7.83,7.83,0,0,1-.21-1.27,7.77,7.77,0,0,1,.21-1.28c.9-2.86,4.43-3.59,7-3.53C270.38,35.71,274.39,36.89,274.46,40.58Z"/><path class="cls-1" d="M171.09,26.2h12.57V47.53h2.91V27.69a1.49,1.49,0,0,1,1.48-1.49h1.53V47.53h3s-3.75-12.7,7-12.7c1.74,0,3.22.35,3.22,3.53v9.17h2.24V38c0-3.69-2.91-4.75-4.94-4.75a10.19,10.19,0,0,0-8.57,4.47l.24-10.37L190.4,26.2h14.76V24.25H171.09Z"/><polygon class="cls-1" points="33.56 33.38 31.86 33.38 31.86 54.4 33.32 54.4 33.56 54.4 58.92 54.4 58.92 52.71 33.56 52.71 33.56 33.38"/><rect class="cls-1" x="28.05" y="33.38" width="1.7" height="21.02"/><rect class="cls-1" x="24.24" y="33.38" width="1.7" height="21.02"/><rect class="cls-1" x="300.41" y="23.89" width="1.7" height="21.02"/><rect class="cls-1" x="304.22" y="23.89" width="1.7" height="21.02"/><polygon class="cls-1" points="296.6 23.89 271.23 23.89 271.23 25.59 296.6 25.59 296.6 44.91 298.29 44.91 298.29 23.89 296.83 23.89 296.6 23.89"/></svg>