<svg id="DESIGN" xmlns="http://www.w3.org/2000/svg" viewBox="0 0 191.83 155.91"><defs><style>.cls-1{fill:#f93;}</style></defs><path class="cls-1" d="M50.12,75.7l-3-6.36L40.89,55.91a1.47,1.47,0,0,1,.72-2l15.5-7.23-.83-1.78L23.59,60.18,24.42,62l13.21-6.16,9.85,21.14Z"/><path class="cls-1" d="M64.87,68.82l2-.94-4-8.61c-1.56-3.34-4.64-3.08-6.49-2.22a10.22,10.22,0,0,0-5.87,7.67l-4.16-9.5-2.11-.55-.51.23,9.11,19.53,2.73-1.28s-8.77-9.92,1-14.48c1.57-.73,3.07-1,4.42,1.85Z"/><path class="cls-1" d="M86,58.83a21.44,21.44,0,0,0,9.77-5.17l-2.09-2.14c-3,3.18-9.79,8.61-13.48,3.74A5.37,5.37,0,0,1,79.53,54c1.21-.88,2.77-.66,4.22-.54,3.56.22,9-2,8.91-6.13-.62-5.56-8.22-4.21-11.45-1.78a7.4,7.4,0,0,0-2,10.32A6.31,6.31,0,0,0,86,58.83ZM88.37,45.2a2.63,2.63,0,0,1,2.5.92,2,2,0,0,1-.06,2.49c-1.74,1.76-4.7,2.33-7.09,2.8-1.54.1-3.55.61-4.38,2C78.42,49.2,84.55,45.61,88.37,45.2Z"/><path class="cls-1" d="M66.65,57.27l-2-4.26-2.11-.56-.51.23L68.73,67l2-.94-3.46-7.42c-1.82-5.81,8.88-7.82,8.88-7.82l-1-2.11S65.67,50.05,66.65,57.27Z"/><path class="cls-1" d="M102.45,51.15A21.44,21.44,0,0,0,112.22,46l-2.09-2.14c-3,3.18-9.8,8.61-13.48,3.74A5.37,5.37,0,0,1,96,46.36c1.21-.88,2.77-.66,4.22-.54,3.55.22,9-2,8.91-6.13-.63-5.56-8.22-4.21-11.45-1.78a7.4,7.4,0,0,0-2,10.33C96.9,50.65,99.91,51.65,102.45,51.15Zm2.38-13.63a2.62,2.62,0,0,1,2.5.92,2,2,0,0,1,0,2.49c-1.74,1.76-4.7,2.33-7.09,2.8-1.54.1-3.55.61-4.38,2C94.88,41.52,101,37.93,104.83,37.52Z"/><path class="cls-1" d="M127.19,49.32c-.22,3.56,2,9,6.13,8.91,5.56-.63,4.21-8.22,1.78-11.45a7.4,7.4,0,0,0-10.32-2,6.31,6.31,0,0,0-2.92,6.79A21.44,21.44,0,0,0,127,61.32l2.14-2.09c-3.18-3-8.61-9.79-3.74-13.48a5.37,5.37,0,0,1,1.22-.65C127.53,46.31,127.31,47.87,127.19,49.32Zm8.3,4.62a2.63,2.63,0,0,1-.92,2.5,2,2,0,0,1-2.49-.06c-1.76-1.74-2.33-4.7-2.8-7.09-.1-1.54-.61-3.55-2-4.38C131.49,44,135.08,50.12,135.49,53.94Z"/><path class="cls-1" d="M123.63,29.58l11.52-5.37-1.32-2.83-21.51,10,1.33,2.83,6.19-2.89c1.78-.83,3.2.51,2.4,2.3,0,0-3.68,11.14-3.68,11.14L120,47.87l5.66-15.31,15.85,5.28-1-2.25Z"/><path class="cls-1" d="M134.76,75.81l11.55-5.39-.95-2-8.68,4s-4,1.64-5.59-4,9.74-6.81,11.08-6.87l-1.89-4.06-8.61,4c-3.34,1.56-3.27,5.72-2.23,7.95a6.86,6.86,0,0,0,5.21,3.91l-1.09.5c-3.42,1.53-9.33,4.9-12.25.83-1.87-2.61.67-5.54,1.61-7,.54-.84-1-2-1-2-2,1.28-3.51,4.89-1.54,9.11a6.5,6.5,0,0,0,5.73,3.69C129.21,78.67,132,77.1,134.76,75.81Z"/><path class="cls-1" d="M142.17,61.55v0C142.36,61.55,142.34,61.54,142.17,61.55Z"/><path class="cls-1" d="M53.54,109.53c2.61-1.87,5.55.67,7,1.61.84.54,2-1,2-1-1.28-2-4.89-3.51-9.11-1.54a6.5,6.5,0,0,0-3.69,5.73c-.17,3.15,1.41,5.93,2.69,8.7l5.39,11.55,2-.95-4.06-8.68s-1.64-4,4-5.59,6.8,9.74,6.86,11.08l4.06-1.89-4-8.61c-1.55-3.34-5.72-3.27-7.94-2.23a6.86,6.86,0,0,0-3.92,5.21l-.49-1.09C52.84,118.36,49.48,112.45,53.54,109.53Z"/><path class="cls-1" d="M66.69,130.39h0C66.69,130.58,66.7,130.56,66.69,130.39Z"/><path class="cls-1" d="M123.84,88.4a21.54,21.54,0,0,0-9.77,5.17l2.09,2.14c3-3.18,9.79-8.61,13.48-3.73a5.32,5.32,0,0,1,.65,1.21c-1.21.88-2.77.66-4.22.54-3.55-.21-9,2-8.91,6.14.63,5.55,8.22,4.21,11.45,1.77a7.39,7.39,0,0,0,2-10.32A6.31,6.31,0,0,0,123.84,88.4ZM121.45,102a2.61,2.61,0,0,1-2.5-.92,2,2,0,0,1,.06-2.49c1.74-1.75,4.7-2.33,7.09-2.8,1.54-.1,3.55-.61,4.38-2C131.41,98,125.27,101.63,121.45,102Z"/><path class="cls-1" d="M92.07,111.94c3.56.21,9-2,8.92-6.14-.63-5.55-8.22-4.21-11.46-1.77a7.81,7.81,0,0,0-3.11,4.54l-.63-2.51-3,1.39,3.9,5.38a7.26,7.26,0,0,0,.82,1.52c1.23,2.41,4.24,3.42,6.78,2.92a21.54,21.54,0,0,0,9.77-5.17L102,110c-3,3.18-9.79,8.61-13.48,3.73a5.32,5.32,0,0,1-.65-1.21C89.06,111.6,90.62,111.82,92.07,111.94Zm4.62-8.3a2.61,2.61,0,0,1,2.5.92,2,2,0,0,1,0,2.49c-1.75,1.75-4.71,2.32-7.1,2.8-1.53.09-3.55.61-4.37,2C86.74,107.63,92.87,104,96.69,103.64Z"/><path class="cls-1" d="M113.43,102.15c1.83,5.8-8.87,7.81-8.87,7.81l1,2.11s9.51-1.32,8.54-8.54l2,4.27,2.11.55.5-.23L112,93.78l-2,.94Z"/><path class="cls-1" d="M80.77,111.23a6.56,6.56,0,0,0-1.27-.44c-6-1.82-13,4.55-10.21,10.63s12.26,4.77,14.71-1a6.28,6.28,0,0,0,.62-1.94,13.18,13.18,0,0,1,.32,3.36l2.13-1-8.69-18.63-2.2,1C76.63,106.47,78.72,108.86,80.77,111.23Zm-2,11.1c-2.69,1.32-6.82,1.94-8.44-1.37s1.67-6.1,4.4-7.3c2.25-1.11,5.74-2,7.77.22a7.21,7.21,0,0,1,.73,1.07,7.34,7.34,0,0,1,.35,1.24C83.93,119.17,81,121.31,78.72,122.33Z"/><rect class="cls-1" x="43.62" y="64.26" width="1.7" height="39.78" transform="translate(-31.4 26.68) rotate(-25)"/><rect class="cls-1" x="40.17" y="65.87" width="1.7" height="39.78" transform="translate(-32.4 25.37) rotate(-25)"/><rect class="cls-1" x="36.71" y="67.48" width="1.7" height="39.78" transform="translate(-33.4 24.06) rotate(-25)"/><path class="cls-1" d="M149.6,76.21,147,77.44l3,6.36,6.26,13.43a1.48,1.48,0,0,1-.72,2l-15.59,7.27.83,1.77,27.52-12.83-.82-1.77-8,3.71Z"/><path class="cls-1" d="M152.83,98.47l.51-.23-9.11-19.53L141.5,80s8.77,9.93-1,14.49c-1.57.73-3.07,1-4.42-1.85l-3.87-8.3-2,.94,4,8.61c1.56,3.34,4.64,3.08,6.49,2.21a10.2,10.2,0,0,0,5.87-7.67l4.16,9.51Z"/></svg>