<svg id="DESIGN" xmlns="http://www.w3.org/2000/svg" viewBox="0 0 164.41 141.73"><defs><style>.cls-1{fill:#231f20;}</style></defs><path class="cls-1" d="M44.3,49.62V27.78a1.49,1.49,0,0,1,1.48-1.49H62.89V24.34H26.82v1.95H41.39V49.62Z"/><path class="cls-1" d="M60.58,49.62h2.23v-9.5c0-3.69-2.9-4.75-4.94-4.75a10.21,10.21,0,0,0-8.57,4.47l.25-10.37-1.68-1.4h-.56V49.62h3s-3.75-12.7,7-12.7c1.73,0,3.22.35,3.22,3.53Z"/><path class="cls-1" d="M83.93,49.49a21.56,21.56,0,0,0,11-.56l-1-2.82c-4.09,1.6-12.51,3.66-13.79-2.32a5.49,5.49,0,0,1-.08-1.38c1.47-.28,2.79.58,4,1.3,3.14,1.7,9,2,10.68-1.79,1.77-5.3-5.68-7.29-9.63-6.45A7.39,7.39,0,0,0,79,44C79.11,46.68,81.42,48.86,83.93,49.49Zm7.93-11.35A2.61,2.61,0,0,1,93.73,40a2,2,0,0,1-1.1,2.23c-2.32.86-5.24.13-7.61-.46-1.43-.56-3.47-.94-4.82,0C81.15,37.56,88.23,36.89,91.86,38.14Z"/><path class="cls-1" d="M67.07,39.9V35.19L65.39,33.8h-.56V49.62h2.24V41.43c.8-6,11.34-3.33,11.34-3.33V35.76S69.24,32.94,67.07,39.9Z"/><path class="cls-1" d="M102.1,49.49a21.56,21.56,0,0,0,11-.56l-1-2.82c-4.09,1.6-12.51,3.66-13.79-2.32a5.49,5.49,0,0,1-.08-1.38c1.47-.28,2.79.58,4,1.3,3.13,1.7,9,2,10.67-1.79,1.78-5.3-5.67-7.29-9.62-6.45a7.39,7.39,0,0,0-6.2,8.5C97.28,46.68,99.59,48.86,102.1,49.49ZM110,38.14A2.61,2.61,0,0,1,111.9,40a2,2,0,0,1-1.1,2.23c-2.32.86-5.24.13-7.61-.46-1.43-.56-3.47-.94-4.82,0C99.32,37.56,106.4,36.89,110,38.14Z"/><path class="cls-1" d="M125.3,58.28c-1.7,3.13-2,9,1.79,10.67,5.3,1.78,7.29-5.67,6.45-9.63a7.39,7.39,0,0,0-8.5-6.19c-2.71.1-4.89,2.4-5.52,4.92a21.56,21.56,0,0,0,.56,11l2.82-1c-1.6-4.09-3.66-12.52,2.32-13.8a5,5,0,0,1,1.37-.07C126.88,55.7,126,57,125.3,58.28ZM130.87,66A2.6,2.6,0,0,1,129,67.85a2,2,0,0,1-2.23-1.1c-.86-2.32-.13-5.25.46-7.62.56-1.43.94-3.47,0-4.82C131.45,55.26,132.12,62.34,130.87,66Z"/><path class="cls-1" d="M130.41,38.89h12.72V35.76H119.4v3.13h6.84c2,0,2.68,1.82,1.2,3.1,0,0-8,8.54-8,8.54v3.4L131,42.44l12.13,11.49V51.44Z"/><path class="cls-1" d="M121,85.48h12.75V83.25h-9.59s-4.29-.19-3.35-6,11.7-2,12.94-1.53V71.22h-9.5c-3.69,0-5.38,3.8-5.38,6.26a6.89,6.89,0,0,0,3.06,5.75H120.7c-3.75,0-10.53.5-11.45-4.42-.6-3.16,3-4.74,4.41-5.67.84-.53-.11-2.25-.11-2.25-2.31.33-5.24,2.94-5.24,7.6A6.5,6.5,0,0,0,112,84.25C114.73,85.73,117.91,85.48,121,85.48Z"/><path class="cls-1" d="M133.71,75.7h0C133.88,75.77,133.86,75.76,133.71,75.7Z"/><path class="cls-1" d="M33.1,81.72c3.16-.59,4.75,3,5.67,4.42C39.31,87,41,86,41,86c-.33-2.31-3-5.24-7.61-5.24a6.51,6.51,0,0,0-5.77,3.64c-1.48,2.78-1.23,6-1.23,9v12.75h2.23V96.6s.19-4.29,6-3.36,2,11.71,1.54,13h4.47v-9.5c0-3.69-3.8-5.38-6.26-5.38a6.89,6.89,0,0,0-5.75,3.06c0-.61,0-1.19,0-1.19C28.74,89.43,28.19,82.65,33.1,81.72Z"/><path class="cls-1" d="M36.21,106.19h0C36.13,106.36,36.15,106.34,36.21,106.19Z"/><path class="cls-1" d="M105.75,92.28a21.56,21.56,0,0,0-11,.56l1,2.82c4.09-1.6,12.51-3.66,13.79,2.32a5.44,5.44,0,0,1,.08,1.37c-1.47.29-2.79-.57-4-1.29-3.13-1.7-9-2-10.67,1.79-1.78,5.3,5.67,7.29,9.62,6.45a7.4,7.4,0,0,0,6.2-8.5C110.57,95.09,108.26,92.91,105.75,92.28Zm-7.92,11.35A2.6,2.6,0,0,1,96,101.74a2,2,0,0,1,1.1-2.23c2.32-.86,5.24-.13,7.61.46,1.43.56,3.47.94,4.82,0C108.53,104.21,101.45,104.87,97.83,103.63Z"/><path class="cls-1" d="M67,100.19c3.13,1.7,8.95,2,10.67-1.79C79.46,93.09,72,91.11,68.05,92a7.81,7.81,0,0,0-4.74,2.8l.49-2.54H60.5l1.27,6.52a7.18,7.18,0,0,0,.09,1.72A6.29,6.29,0,0,0,66.78,106a21.35,21.35,0,0,0,11-.56l-1-2.82c-4.09,1.61-12.52,3.67-13.8-2.31A5,5,0,0,1,63,98.89C64.43,98.61,65.74,99.47,67,100.19Zm7.69-5.57a2.62,2.62,0,0,1,1.88,1.89,2,2,0,0,1-1.1,2.23c-2.32.86-5.25.12-7.62-.46-1.43-.56-3.47-1-4.82,0C64,94,71.07,93.37,74.7,94.62Z"/><path class="cls-1" d="M90.51,100.34c-.81,6-11.35,3.33-11.35,3.33V106s9.18,2.82,11.35-4.14v4.71L92.18,108h.56V92.15H90.51Z"/><path class="cls-1" d="M57.06,94.77a6,6,0,0,0-1-.93c-4.65-4.18-13.72-1.38-13.75,5.32s9.1,9.5,13.75,5.32a6.57,6.57,0,0,0,1.39-1.5,13.61,13.61,0,0,1-1.13,3.18H58.7V85.6H56.28C55.33,88.71,56.21,91.76,57.06,94.77ZM50.51,104c-3,.06-7-1.13-7.07-4.81.09-3.68,4.1-4.82,7.07-4.76,2.52-.06,6.05.63,7,3.48a7.77,7.77,0,0,1,.21,1.28,7.83,7.83,0,0,1-.21,1.27C56.58,103.3,53,104,50.51,104Z"/><rect class="cls-1" x="34.76" y="34.99" width="1.7" height="39.78"/><rect class="cls-1" x="30.95" y="34.99" width="1.7" height="39.78"/><rect class="cls-1" x="27.14" y="34.99" width="1.7" height="39.78"/><path class="cls-1" d="M134.24,92.12h-2.91V114a1.48,1.48,0,0,1-1.48,1.48h-17.2v2H143v-2h-8.78Z"/><path class="cls-1" d="M127.76,113.66h.56V92.12h-3s3.75,12.7-7,12.7c-1.73,0-3.22-.35-3.22-3.54V92.12h-2.24v9.5c0,3.68,2.91,4.75,5,4.75a10.17,10.17,0,0,0,8.56-4.47l-.24,10.37Z"/></svg>